ply
format ascii 1.0
element vertex 62
property float x
property float y
property float z
end_header
1240.37 1769.63 0.267469
1237.24 1767.36 0.271433
1239.73 1769.76 0.267575
1240.34 1769.66 0.267465
1240.12 1769.7 0.267495
1239.51 1768.47 0.266855
1240.21 1769.71 0.267474
1239.89 1772.53 0.266603
1239.66 1769.69 0.26763
1239.5 1768.47 0.266869
1240.28 1769.67 0.26744
1237.19 1767.5 0.271327
1240.21 1769.71 0.267481
1239.21 1772.38 0.267205
1244.54 1768.15 0.255703
1239.66 1769.69 0.26764
1240.26 1769.66 0.267499
1240.89 1766.7 0.259268
1239.74 1769.77 0.267545
1240.29 1769.71 0.26746
1240.37 1769.63 0.267468
1240.07 1769.58 0.267605
1240.2 1769.7 0.267496
1239.68 1769.71 0.267566
1247.9 1772.1 0.242054
1240.95 1766.18 0.259671
1240.77 1766.14 0.25959
1240.8 1766.37 0.259478
1240.26 1769.66 0.267478
1247.84 1772.06 0.242204
1240.79 1766.39 0.259449
1240.22 1769.71 0.267449
1240.83 1766.51 0.259329
1240.89 1766.7 0.25925
1240.77 1766.14 0.259602
1240.77 1766.31 0.259523
1240.79 1766.39 0.259453
1238.89 1772.01 0.266636
1240.8 1766.37 0.25949
1240.36 1769.63 0.267485
1240.31 1769.72 0.267421
1240.23 1769.73 0.267461
1240.21 1769.7 0.267486
1240.9 1766.7 0.259241
1240.78 1766.39 0.259472
1240.76 1766.07 0.259618
1240.85 1766.5 0.259386
1240.31 1769.72 0.267412
1240.82 1766.5 0.259358
1235.69 1770.61 0.268108
1240.22 1769.7 0.267469
1240.91 1766.57 0.259368
1240.37 1769.64 0.267444
1240.29 1769.7 0.267466
1240.74 1766.16 0.25954
1235.7 1770.61 0.268079
1240.75 1766.14 0.259622
1241.09 1766.05 0.259856
1240.76 1766.08 0.259612
1239.35 1765.52 0.26347
1240.71 1766.14 0.259615
1235.92 1770.86 0.268048
