ply
format ascii 1.0
comment VTK generated PLY File
obj_info vtkPolyData points and polygons: vtk4.0
element vertex 31
property float x
property float y
property float z
element face 0
property list uchar int vertex_indices
end_header
700.53131103515625 830.22442626953125 0.032483667135238647 
700.504638671875 830.1563720703125 0.033261287957429886 
700.50433349609375 830.16046142578125 0.033399563282728195 
700.50238037109375 830.15167236328125 0.033397369086742401 
700.56048583984375 830.2850341796875 0.031974468380212784 
700.53411865234375 830.2210693359375 0.032676663249731064 
700.49713134765625 830.1351318359375 0.033635605126619339 
700.51129150390625 830.18109130859375 0.033233299851417542 
700.498046875 830.1361083984375 0.033578313887119293 
700.48614501953125 830.14532470703125 0.034314144402742386 
700.50103759765625 830.15093994140625 0.033531308174133301 
700.5260009765625 830.23260498046875 0.033237013965845108 
700.36956787109375 830.028076171875 0.036478202790021896 
700.468017578125 830.066650390625 0.035006493330001831 
700.47064208984375 830.114990234375 0.034444637596607208 
700.51531982421875 830.207275390625 0.03292914479970932 
700.43212890625 830.0987548828125 0.034969460219144821 
700.3914794921875 830.05426025390625 0.036000289022922516 
700.50347900390625 830.17218017578125 0.033743295818567276 
700.48193359375 830.142333984375 0.034218233078718185 
700.4345703125 830.0933837890625 0.03490564227104187 
700.442138671875 830.10955810546875 0.034721564501523972 
700.408447265625 830.0543212890625 0.035725485533475876 
700.4365234375 830.0804443359375 0.035015139728784561 
700.51458740234375 830.20635986328125 0.033114589750766754 
700.57586669921875 830.21697998046875 0.03237910196185112 
700.6058349609375 830.2708740234375 0.032104972749948502 
700.5426025390625 830.15863037109375 0.033145900815725327 
700.44134521484375 830.1192626953125 0.034445572644472122 
700.35931396484375 830.03668212890625 0.036213885992765427 
700.35723876953125 830.019287109375 0.03644215315580368 
