ply
format ascii 1.0
comment VTK generated PLY File
obj_info vtkPolyData points and polygons: vtk4.0
element vertex 35
property float x
property float y
property float z
element face 0
property list uchar int vertex_indices
end_header
936.4334716796875 804.86614990234375 0.43374523520469666 
936.42144775390625 804.87335205078125 0.43374344706535339 
936.4208984375 804.87298583984375 0.43374341726303101 
936.421875 804.87347412109375 0.43374353647232056 
936.51165771484375 804.85931396484375 0.43375524878501892 
936.4735107421875 804.87060546875 0.43372595310211182 
936.42425537109375 804.84722900390625 0.43374350666999817 
936.48236083984375 804.85467529296875 0.43375048041343689 
936.42742919921875 804.87786865234375 0.4337444007396698 
936.40972900390625 804.85394287109375 0.43374195694923401 
936.42926025390625 804.8489990234375 0.4337444007396698 
936.424072265625 804.84722900390625 0.43374362587928772 
936.45245361328125 804.8115234375 0.43376404047012329 
936.4271240234375 804.89892578125 0.43373218178749084 
936.433349609375 804.86627197265625 0.43374517560005188 
936.48944091796875 804.84320068359375 0.43374964594841003 
936.48651123046875 804.8533935546875 0.43375104665756226 
936.4290771484375 804.84918212890625 0.43374431133270264 
936.4329833984375 804.86614990234375 0.43374517560005188 
936.437744140625 804.8448486328125 0.43374362587928772 
936.42401123046875 804.84722900390625 0.43374365568161011 
936.4151611328125 804.87274169921875 0.43374267220497131 
936.39996337890625 804.93414306640625 0.43373945355415344 
936.43780517578125 804.84490966796875 0.43374362587928772 
936.40142822265625 804.9312744140625 0.43373975157737732 
936.485595703125 804.84759521484375 0.4337504506111145 
936.4276123046875 804.84765625 0.43374404311180115 
936.3997802734375 804.9339599609375 0.43373954296112061 
936.432861328125 804.8663330078125 0.43374496698379517 
936.48272705078125 804.8548583984375 0.43375042080879211 
936.489501953125 804.8431396484375 0.43374958634376526 
936.45068359375 804.83709716796875 0.43374454975128174 
936.48980712890625 804.8414306640625 0.4337497353553772 
936.49127197265625 804.85479736328125 0.43375211954116821 
936.486083984375 804.85333251953125 0.43375086784362793 
